<svg xmlns="http://www.w3.org/2000/svg" width="1800" height="1480" viewBox="0 0 1800 1480">

  <defs>
    <marker id="arrow" markerWidth="14" markerHeight="14" refX="12" refY="7" orient="auto" markerUnits="strokeWidth"><path d="M1,1 L13,7 L1,13 Z" fill="#111111"/></marker>
    <style><![CDATA[
      .title { font: 700 52px Arial, sans-serif; fill: #000; }
      .subtitle { font: 700 40px Arial, sans-serif; fill: #000; }
      .section { font: 700 32px Arial, sans-serif; fill: #000; }
      .label { font: 700 30px Arial, sans-serif; fill: #000; }
      .label-sm { font: 700 26px Arial, sans-serif; fill: #000; }
      .body { font: 400 24px Arial, sans-serif; fill: #000; }
      .small { font: 400 21px Arial, sans-serif; fill: #000; }
      .tiny { font: 400 18px Arial, sans-serif; fill: #000; }
      .line { stroke: #111; stroke-width: 3; fill: none; marker-end: url(#arrow); }
      .line-soft { stroke: #333; stroke-width: 2.6; fill: none; marker-end: url(#arrow); }
      .dash { stroke: #111; stroke-width: 3; stroke-dasharray: 10 8; fill: none; marker-end: url(#arrow); }
    ]]></style>
  </defs>
<rect width="1800" height="1480" fill="#fff"/>
<text x="900" y="72" text-anchor="middle" class="title"><tspan x="900" dy="0">Figure 3.3b: Oldest-Balance-First Allocation</tspan></text>
<rect x="690" y="115" width="420" height="80" rx="40" fill="#e8f1ff" stroke="#111" stroke-width="3" />
<text x="900" y="139" text-anchor="middle" class="label-sm"><tspan x="900" dy="0">From Figure 3.3a</tspan><tspan x="900" dy="30">allocation service</tspan></text>
<rect x="650" y="260" width="500" height="125" rx="16" fill="#ecfdf3" stroke="#111" stroke-width="3" />
<text x="900" y="306.5" text-anchor="middle" class="label-sm"><tspan x="900" dy="0">Load incomplete contributions</tspan><tspan x="900" dy="30">oldest month first</tspan></text>
<polygon points="900,470 1100,575 900,680 700,575" fill="#fff7ed" stroke="#111" stroke-width="3"/>
<text x="900" y="559" text-anchor="middle" class="label-sm"><tspan x="900" dy="0">Outstanding</tspan><tspan x="900" dy="30">balance exists?</tspan></text>
<rect x="165" y="805" width="430" height="125" rx="16" fill="#ecfdf3" stroke="#111" stroke-width="3" />
<text x="380" y="851.5" text-anchor="middle" class="label-sm"><tspan x="380" dy="0">Apply payment to</tspan><tspan x="380" dy="30">oldest balance</tspan></text>
<polygon points="380,1020 580,1105 380,1190 180,1105" fill="#fff7ed" stroke="#111" stroke-width="3"/>
<text x="380" y="1089" text-anchor="middle" class="label-sm"><tspan x="380" dy="0">Amount still</tspan><tspan x="380" dy="30">remaining?</tspan></text>
<rect x="165" y="1250" width="430" height="110" rx="16" fill="#ecfdf3" stroke="#111" stroke-width="3" />
<text x="380" y="1289" text-anchor="middle" class="label-sm"><tspan x="380" dy="0">Move to next unpaid</tspan><tspan x="380" dy="30">or future month</tspan></text>
<rect x="1190" y="805" width="430" height="140" rx="16" fill="#ecfdf3" stroke="#111" stroke-width="3" />
<text x="1405" y="859" text-anchor="middle" class="label-sm"><tspan x="1405" dy="0">Create current month</tspan><tspan x="1405" dy="30">contribution if needed</tspan></text>
<rect x="690" y="1250" width="420" height="120" rx="16" fill="#e8f1ff" stroke="#111" stroke-width="3" />
<text x="900" y="1294" text-anchor="middle" class="label-sm"><tspan x="900" dy="0">Persist payment</tspan><tspan x="900" dy="30">records</tspan></text>
<path class="line-soft" d="M900 195 L900 260"/>
<path class="line-soft" d="M900 385 L900 470"/>
<path class="line-soft" d="M700 575 L380 700 L380 805"/>
<text x="394" y="690" text-anchor="start" class="tiny"><tspan x="394" dy="0">Yes</tspan></text>
<path class="line-soft" d="M380 930 L380 1020"/>
<path class="line-soft" d="M380 1105 L380 1250"/>
<text x="394" y="1240" text-anchor="start" class="tiny"><tspan x="394" dy="0">Yes</tspan></text>
<path class="line-soft" d="M165 1305 L85 1305 L85 760 L380 760 L380 805"/>
<text x="99" y="750" text-anchor="start" class="tiny"><tspan x="99" dy="0">repeat</tspan></text>
<path class="line-soft" d="M580 1105 L900 1185 L900 1250"/>
<text x="914" y="1175" text-anchor="start" class="tiny"><tspan x="914" dy="0">No</tspan></text>
<path class="line-soft" d="M1100 575 L1405 700 L1405 805"/>
<text x="1419" y="690" text-anchor="start" class="tiny"><tspan x="1419" dy="0">No</tspan></text>
<path class="line-soft" d="M1405 945 L1405 1310 L1110 1310"/>
</svg>