<svg xmlns="http://www.w3.org/2000/svg" width="2400" height="2070" viewBox="0 0 2400 2070">

  <defs>
    <marker id="arrow" markerWidth="14" markerHeight="14" refX="12" refY="7" orient="auto" markerUnits="strokeWidth"><path d="M1,1 L13,7 L1,13 Z" fill="#111111"/></marker>
    <style><![CDATA[
      .title { font: 700 52px Arial, sans-serif; fill: #000; }
      .subtitle { font: 700 40px Arial, sans-serif; fill: #000; }
      .section { font: 700 32px Arial, sans-serif; fill: #000; }
      .label { font: 700 30px Arial, sans-serif; fill: #000; }
      .label-sm { font: 700 26px Arial, sans-serif; fill: #000; }
      .body { font: 400 24px Arial, sans-serif; fill: #000; }
      .small { font: 400 21px Arial, sans-serif; fill: #000; }
      .tiny { font: 400 18px Arial, sans-serif; fill: #000; }
      .line { stroke: #111; stroke-width: 3; fill: none; marker-end: url(#arrow); }
      .line-soft { stroke: #333; stroke-width: 2.6; fill: none; marker-end: url(#arrow); }
      .dash { stroke: #111; stroke-width: 3; stroke-dasharray: 10 8; fill: none; marker-end: url(#arrow); }
    ]]></style>
  </defs>
<rect width="2400" height="2070" fill="#fff"/>
<text x="1200" y="68" text-anchor="middle" class="title"><tspan x="1200" dy="0">FamilyFunds Entity-Relationship Diagram</tspan></text>
<rect x="940" y="115" width="520" height="150" rx="28" fill="#e8f1ff" stroke="#111" stroke-width="4" />
<text x="1200" y="175" text-anchor="middle" class="label"><tspan x="1200" dy="0">families</tspan></text>
<text x="1200" y="218" text-anchor="middle" class="body"><tspan x="1200" dy="0">Tenant record and isolation boundary</tspan></text>
<rect x="70" y="340" width="680" height="1140" rx="24" fill="#f1f7ff" stroke="#111" stroke-width="3" />
<text x="410" y="388" text-anchor="middle" class="section"><tspan x="410" dy="0">User &amp; Access Records</tspan></text>
<rect x="860" y="340" width="680" height="1140" rx="24" fill="#f2fbf0" stroke="#111" stroke-width="3" />
<text x="1200" y="388" text-anchor="middle" class="section"><tspan x="1200" dy="0">Contribution Ledger</tspan></text>
<rect x="1650" y="340" width="680" height="1140" rx="24" fill="#fff7ed" stroke="#111" stroke-width="3" />
<text x="1990" y="388" text-anchor="middle" class="section"><tspan x="1990" dy="0">Platform, Messaging &amp; AI</tspan></text>
<path class="line" d="M1045 265 L1045 305 L410 305 L410 340"/>
<path class="line" d="M1200 265 L1200 340"/>
<path class="line" d="M1355 265 L1355 305 L1990 305 L1990 340"/>
<rect x="175" y="445" width="470" height="120" rx="18" fill="#ffffff" stroke="#111" stroke-width="3" /><text x="410" y="492" text-anchor="middle" class="label"><tspan x="410" dy="0">users</tspan></text><text x="410" y="527" text-anchor="middle" class="body"><tspan x="410" dy="0">role, category, family_id</tspan></text>
<rect x="115" y="745" width="290" height="120" rx="18" fill="#ffffff" stroke="#111" stroke-width="3" /><text x="260" y="792" text-anchor="middle" class="label"><tspan x="260" dy="0">family_invitations</tspan></text><text x="260" y="827" text-anchor="middle" class="body"><tspan x="260" dy="0">token, role, inviter_id</tspan></text>
<rect x="445" y="745" width="250" height="120" rx="18" fill="#ffffff" stroke="#111" stroke-width="3" /><text x="570" y="792" text-anchor="middle" class="label"><tspan x="570" dy="0">passkeys</tspan></text><text x="570" y="827" text-anchor="middle" class="body"><tspan x="570" dy="0">user_id credential</tspan></text>
<rect x="175" y="1070" width="470" height="120" rx="18" fill="#ffffff" stroke="#111" stroke-width="3" /><text x="410" y="1117" text-anchor="middle" class="label"><tspan x="410" dy="0">authentication state</tspan></text><text x="410" y="1152" text-anchor="middle" class="body"><tspan x="410" dy="0">email verification, 2FA</tspan></text>
<path class="line-soft" d="M315 565 L315 745"/>
<text x="270" y="658" text-anchor="middle" class="tiny"><tspan x="270" dy="0">invites</tspan></text>
<path class="line-soft" d="M530 565 L530 745"/>
<text x="570" y="658" text-anchor="middle" class="tiny"><tspan x="570" dy="0">owns</tspan></text>
<path class="line-soft" d="M410 865 L410 1070"/>
<text x="410" y="990" text-anchor="middle" class="tiny"><tspan x="410" dy="0">secures account access</tspan></text>
<rect x="965" y="445" width="470" height="120" rx="18" fill="#ffffff" stroke="#111" stroke-width="3" /><text x="1200" y="492" text-anchor="middle" class="label"><tspan x="1200" dy="0">family_categories</tspan></text><text x="1200" y="527" text-anchor="middle" class="body"><tspan x="1200" dy="0">monthly amount per tier</tspan></text>
<rect x="965" y="670" width="470" height="120" rx="18" fill="#ffffff" stroke="#111" stroke-width="3" /><text x="1200" y="717" text-anchor="middle" class="label"><tspan x="1200" dy="0">contributions</tspan></text><text x="1200" y="752" text-anchor="middle" class="body"><tspan x="1200" dy="0">monthly obligations</tspan></text>
<rect x="965" y="895" width="470" height="120" rx="18" fill="#ffffff" stroke="#111" stroke-width="3" /><text x="1200" y="942" text-anchor="middle" class="label"><tspan x="1200" dy="0">payments</tspan></text><text x="1200" y="977" text-anchor="middle" class="body"><tspan x="1200" dy="0">amount applied to contribution</tspan></text>
<rect x="905" y="1185" width="290" height="120" rx="18" fill="#ffffff" stroke="#111" stroke-width="3" /><text x="1050" y="1232" text-anchor="middle" class="label"><tspan x="1050" dy="0">expenses</tspan></text><text x="1050" y="1267" text-anchor="middle" class="body"><tspan x="1050" dy="0">outgoing funds</tspan></text>
<rect x="1220" y="1185" width="295" height="120" rx="18" fill="#ffffff" stroke="#111" stroke-width="3" /><text x="1367.5" y="1232" text-anchor="middle" class="label"><tspan x="1367.5" dy="0">fund_adjustments</tspan></text><text x="1367.5" y="1267" text-anchor="middle" class="body"><tspan x="1367.5" dy="0">donations, corrections</tspan></text>
<rect x="965" y="1345" width="470" height="90" rx="18" fill="#ffffff" stroke="#111" stroke-width="3" /><text x="1200" y="1392" text-anchor="middle" class="label"><tspan x="1200" dy="0">paystack_transactions</tspan></text><text x="1200" y="1427" text-anchor="middle" class="body"><tspan x="1200" dy="0">gateway reference and status</tspan></text>
<path class="line-soft" d="M1200 565 L1200 670"/>
<text x="1262" y="626" text-anchor="start" class="tiny"><tspan x="1262" dy="0">category_id</tspan></text>
<path class="line-soft" d="M1200 790 L1200 895"/>
<text x="1262" y="852" text-anchor="start" class="tiny"><tspan x="1262" dy="0">has many</tspan></text>
<path class="line-soft" d="M1070 1015 L1070 1185"/>
<text x="970" y="1112" text-anchor="middle" class="tiny"><tspan x="970" dy="0">recorded by user</tspan></text>
<path class="line-soft" d="M1345 1015 L1345 1185"/>
<text x="1396" y="1112" text-anchor="start" class="tiny"><tspan x="1396" dy="0">family-level balance</tspan></text>
<path class="line-soft" d="M1200 1015 L1200 1345"/>
<rect x="1755" y="445" width="470" height="120" rx="18" fill="#ffffff" stroke="#111" stroke-width="3" /><text x="1990" y="492" text-anchor="middle" class="label"><tspan x="1990" dy="0">platform_plans</tspan></text><text x="1990" y="527" text-anchor="middle" class="body"><tspan x="1990" dy="0">subscription limits</tspan></text>
<rect x="1710" y="690" width="250" height="120" rx="18" fill="#ffffff" stroke="#111" stroke-width="3" /><text x="1835" y="737" text-anchor="middle" class="label"><tspan x="1835" dy="0">notifications</tspan></text><text x="1835" y="772" text-anchor="middle" class="body"><tspan x="1835" dy="0">system notices</tspan></text>
<rect x="2015" y="690" width="250" height="120" rx="18" fill="#ffffff" stroke="#111" stroke-width="3" /><text x="2140" y="737" text-anchor="middle" class="label"><tspan x="2140" dy="0">whatsapp_messages</tspan></text><text x="2140" y="772" text-anchor="middle" class="body"><tspan x="2140" dy="0">reminder channel</tspan></text>
<rect x="1755" y="935" width="470" height="120" rx="18" fill="#ffffff" stroke="#111" stroke-width="3" /><text x="1990" y="982" text-anchor="middle" class="label"><tspan x="1990" dy="0">agent_conversations</tspan></text><text x="1990" y="1017" text-anchor="middle" class="body"><tspan x="1990" dy="0">AI chat sessions</tspan></text>
<rect x="1755" y="1205" width="470" height="120" rx="18" fill="#ffffff" stroke="#111" stroke-width="3" /><text x="1990" y="1252" text-anchor="middle" class="label"><tspan x="1990" dy="0">agent_messages</tspan></text><text x="1990" y="1287" text-anchor="middle" class="body"><tspan x="1990" dy="0">prompts, tools, results</tspan></text>
<path class="line-soft" d="M1990 565 L1835 690"/>
<text x="1882" y="635" text-anchor="middle" class="tiny"><tspan x="1882" dy="0">plan gates</tspan></text>
<path class="line-soft" d="M1990 565 L2140 690"/>
<text x="2098" y="635" text-anchor="middle" class="tiny"><tspan x="2098" dy="0">message log</tspan></text>
<path class="line-soft" d="M1835 810 L1835 935"/>
<text x="1740" y="878" text-anchor="middle" class="tiny"><tspan x="1740" dy="0">user / family scope</tspan></text>
<path class="line-soft" d="M1990 1055 L1990 1205"/>
<text x="2050" y="1138" text-anchor="start" class="tiny"><tspan x="2050" dy="0">has many</tspan></text>
<rect x="150" y="1520" width="2100" height="350" rx="24" fill="#f5f3ff" stroke="#111" stroke-width="3" />
<text x="1200" y="1570" text-anchor="middle" class="section"><tspan x="1200" dy="0">Predictive Advisory Records</tspan></text>
<rect x="300" y="1620" width="700" height="150" rx="18" fill="#ffffff" stroke="#111" stroke-width="3" />
<text x="650" y="1670" text-anchor="middle" class="label-sm"><tspan x="650" dy="0">payment_risk_model_versions</tspan></text>
<text x="650" y="1710" text-anchor="middle" class="small"><tspan x="650" dy="0">schema, checksum, threshold, metrics, activation</tspan></text>
<text x="650" y="1742" text-anchor="middle" class="tiny"><tspan x="650" dy="0">immutable portable-model metadata</tspan></text>
<rect x="1400" y="1620" width="700" height="150" rx="18" fill="#ffffff" stroke="#111" stroke-width="3" />
<text x="1750" y="1670" text-anchor="middle" class="label-sm"><tspan x="1750" dy="0">payment_risk_predictions</tspan></text>
<text x="1750" y="1710" text-anchor="middle" class="small"><tspan x="1750" dy="0">family, membership, contribution, model, cutoff</tspan></text>
<text x="1750" y="1742" text-anchor="middle" class="tiny"><tspan x="1750" dy="0">probability, band, tier, feature hash, factors</tspan></text>
<path class="line-soft" d="M1000 1695 L1400 1695"/>
<text x="1200" y="1678" text-anchor="middle" class="tiny"><tspan x="1200" dy="0">one version has many advisories</tspan></text>
<path class="line-soft" d="M1200 1435 L1200 1485 L1750 1485 L1750 1620"/>
<text x="1480" y="1470" text-anchor="middle" class="tiny"><tspan x="1480" dy="0">contribution_id at creation cutoff</tspan></text>
<path class="dash" d="M410 1480 L410 1500 L1600 1500 L1600 1620"/>
<text x="890" y="1490" text-anchor="middle" class="tiny"><tspan x="890" dy="0">family membership and officer-scoped tenancy</tspan></text>
<rect x="150" y="1930" width="2100" height="78" rx="18" fill="#f8fafc" stroke="#111" stroke-width="2" />
<text x="1200" y="1978" text-anchor="middle" class="small"><tspan x="1200" dy="0">Tenant-owned records are grouped by module; payment-risk advisories remain immutable and cannot mutate the financial ledger.</tspan></text>
</svg>
