<svg xmlns="http://www.w3.org/2000/svg" width="1920" height="900" viewBox="0 0 1920 900">
<defs>
  <marker id="arrow" markerWidth="10" markerHeight="10" refX="8" refY="5" orient="auto" markerUnits="strokeWidth">
    <path d="M 0 0 L 10 5 L 0 10 z" fill="#444"/>
  </marker>
</defs>
<rect width="100%" height="100%" fill="white"/>
<rect x="560" y="560" width="1290" height="250" fill="#f2f5ff" stroke="#d9e1f5" stroke-width="1"/><text x="820" y="586" text-anchor="middle" font-family="Arial, Helvetica, sans-serif" font-size="16" fill="#333">Allocation Loop</text><rect x="40" y="40" width="110" height="44" rx="22.0" ry="22.0" fill="#1f3b64" stroke="#1f3b64" stroke-width="1.4"/><text x="95.0" y="62.0" text-anchor="middle" font-family="Arial, Helvetica, sans-serif" font-size="16" fill="white"><tspan x="95.0" dy="0">Start</tspan></text><polygon points="260,80.0 350.0,140 260,200.0 170.0,140" fill="#fff7e8" stroke="#d39b41" stroke-width="1.4"/><text x="260" y="145.33333333333334" text-anchor="middle" font-family="Arial, Helvetica, sans-serif" font-size="16" fill="#7a4a00"><tspan x="260" dy="0">Payment source?</tspan></text><rect x="70" y="250" width="260" height="80" rx="0" ry="0" fill="#ffffff" stroke="#7b9bc9" stroke-width="1.4"/><text x="200.0" y="279.2" text-anchor="middle" font-family="Arial, Helvetica, sans-serif" font-size="16" fill="#17335c"><tspan x="200.0" dy="0">Manual: Admin /</tspan><tspan x="200.0" dy="21.6">Secretary records payment</tspan></text><rect x="400" y="250" width="250" height="80" rx="0" ry="0" fill="#ffffff" stroke="#7b9bc9" stroke-width="1.4"/><text x="525.0" y="279.2" text-anchor="middle" font-family="Arial, Helvetica, sans-serif" font-size="16" fill="#17335c"><tspan x="525.0" dy="0">Online: Member selects</tspan><tspan x="525.0" dy="21.6">unpaid contributions</tspan></text><rect x="720" y="250" width="280" height="96" rx="0" ry="0" fill="#ffffff" stroke="#7b9bc9" stroke-width="1.4"/><text x="860.0" y="276.4" text-anchor="middle" font-family="Arial, Helvetica, sans-serif" font-size="16" fill="#17335c"><tspan x="860.0" dy="0">Process Paystack checkout</tspan><tspan x="860.0" dy="21.6">and callback /</tspan><tspan x="860.0" dy="21.6">webhook</tspan></text><polygon points="1120,220.0 1215.0,290 1120,360.0 1025.0,290" fill="#fff7e8" stroke="#d39b41" stroke-width="1.4"/><text x="1120" y="284.5333333333333" text-anchor="middle" font-family="Arial, Helvetica, sans-serif" font-size="16" fill="#7a4a00"><tspan x="1120" dy="0">Valid status</tspan><tspan x="1120" dy="21.6">and amount?</tspan></text><rect x="1325" y="260" width="230" height="72" rx="0" ry="0" fill="#fff5f5" stroke="#e07b7b" stroke-width="1.4"/><text x="1440.0" y="285.2" text-anchor="middle" font-family="Arial, Helvetica, sans-serif" font-size="16" fill="#17335c"><tspan x="1440.0" dy="0">Mark failed /</tspan><tspan x="1440.0" dy="21.6">review later</tspan></text><rect x="1610" y="266" width="230" height="60" rx="30.0" ry="30.0" fill="#1f3b64" stroke="#1f3b64" stroke-width="1.4"/><text x="1725.0" y="285.2" text-anchor="middle" font-family="Arial, Helvetica, sans-serif" font-size="16" fill="white"><tspan x="1725.0" dy="0">End: payment not</tspan><tspan x="1725.0" dy="21.6">allocated</tspan></text><rect x="420" y="430" width="240" height="72" rx="0" ry="0" fill="#ffffff" stroke="#7b9bc9" stroke-width="1.4"/><text x="540.0" y="455.2" text-anchor="middle" font-family="Arial, Helvetica, sans-serif" font-size="16" fill="#17335c"><tspan x="540.0" dy="0">Send payment to</tspan><tspan x="540.0" dy="21.6">allocation service</tspan></text><rect x="760" y="430" width="280" height="88" rx="0" ry="0" fill="#ffffff" stroke="#7b9bc9" stroke-width="1.4"/><text x="900.0" y="452.4" text-anchor="middle" font-family="Arial, Helvetica, sans-serif" font-size="16" fill="#17335c"><tspan x="900.0" dy="0">Load incomplete</tspan><tspan x="900.0" dy="21.6">contributions</tspan><tspan x="900.0" dy="21.6">oldest month first</tspan></text><polygon points="1180,395.0 1280.0,470 1180,545.0 1080.0,470" fill="#fff7e8" stroke="#d39b41" stroke-width="1.4"/><text x="1180" y="464.5333333333333" text-anchor="middle" font-family="Arial, Helvetica, sans-serif" font-size="16" fill="#7a4a00"><tspan x="1180" dy="0">Outstanding balance</tspan><tspan x="1180" dy="21.6">exists?</tspan></text><rect x="620" y="610" width="230" height="72" rx="0" ry="0" fill="#ffffff" stroke="#7b9bc9" stroke-width="1.4"/><text x="735.0" y="635.2" text-anchor="middle" font-family="Arial, Helvetica, sans-serif" font-size="16" fill="#17335c"><tspan x="735.0" dy="0">Apply payment to</tspan><tspan x="735.0" dy="21.6">oldest balance</tspan></text><polygon points="980,590.0 1065.0,650 980,710.0 895.0,650" fill="#fff7e8" stroke="#d39b41" stroke-width="1.4"/><text x="980" y="644.5333333333334" text-anchor="middle" font-family="Arial, Helvetica, sans-serif" font-size="16" fill="#7a4a00"><tspan x="980" dy="0">Amount still</tspan><tspan x="980" dy="21.6">remaining?</tspan></text><rect x="1260" y="610" width="250" height="72" rx="0" ry="0" fill="#ffffff" stroke="#7b9bc9" stroke-width="1.4"/><text x="1385.0" y="635.2" text-anchor="middle" font-family="Arial, Helvetica, sans-serif" font-size="16" fill="#17335c"><tspan x="1385.0" dy="0">Move to next unpaid</tspan><tspan x="1385.0" dy="21.6">or future month</tspan></text><rect x="620" y="730" width="260" height="88" rx="0" ry="0" fill="#ffffff" stroke="#7b9bc9" stroke-width="1.4"/><text x="750.0" y="763.2" text-anchor="middle" font-family="Arial, Helvetica, sans-serif" font-size="16" fill="#17335c"><tspan x="750.0" dy="0">Create current month</tspan><tspan x="750.0" dy="21.6">contribution if needed</tspan></text><rect x="980" y="730" width="210" height="72" rx="0" ry="0" fill="#ffffff" stroke="#7b9bc9" stroke-width="1.4"/><text x="1085.0" y="755.2" text-anchor="middle" font-family="Arial, Helvetica, sans-serif" font-size="16" fill="#17335c"><tspan x="1085.0" dy="0">Persist payment</tspan><tspan x="1085.0" dy="21.6">records</tspan></text><rect x="1270" y="730" width="260" height="88" rx="0" ry="0" fill="#ffffff" stroke="#7b9bc9" stroke-width="1.4"/><text x="1400.0" y="752.4" text-anchor="middle" font-family="Arial, Helvetica, sans-serif" font-size="16" fill="#17335c"><tspan x="1400.0" dy="0">Refresh reports,</tspan><tspan x="1400.0" dy="21.6">dashboard, and</tspan><tspan x="1400.0" dy="21.6">member status</tspan></text><rect x="1585" y="720" width="250" height="108" rx="0" ry="0" fill="#ffffff" stroke="#7b9bc9" stroke-width="1.4"/><text x="1710.0" y="741.6" text-anchor="middle" font-family="Arial, Helvetica, sans-serif" font-size="16" fill="#17335c"><tspan x="1710.0" dy="0">Send email /</tspan><tspan x="1710.0" dy="21.6">WhatsApp</tspan><tspan x="1710.0" dy="21.6">notification</tspan><tspan x="1710.0" dy="21.6">(when required)</tspan></text><rect x="1595" y="840" width="240" height="56" rx="28.0" ry="28.0" fill="#1f3b64" stroke="#1f3b64" stroke-width="1.4"/><text x="1715.0" y="857.2" text-anchor="middle" font-family="Arial, Helvetica, sans-serif" font-size="16" fill="white"><tspan x="1715.0" dy="0">End: allocation</tspan><tspan x="1715.0" dy="21.6">complete</tspan></text><path d="M 95 84 L 170 84" fill="none" stroke="#4b5563" stroke-width="2.6" marker-end="url(#arrow)"/><path d="M 200 140 L 160 140 L 160 250 L 200 250" fill="none" stroke="#4b5563" stroke-width="2.6" marker-end="url(#arrow)"/><rect x="130.0" y="193.0" width="60" height="24" rx="3" ry="3" fill="#efd9ff" stroke="none" stroke-width="0"/><text x="160.0" y="205.0" text-anchor="middle" font-family="Arial, Helvetica, sans-serif" font-size="13" fill="#6d3b7e"><tspan x="160.0" dy="0">Manual</tspan></text><path d="M 320 140 L 525 140 L 525 250" fill="none" stroke="#4b5563" stroke-width="2.6" marker-end="url(#arrow)"/><rect x="495.0" y="193.0" width="60" height="24" rx="3" ry="3" fill="#efd9ff" stroke="none" stroke-width="0"/><text x="525.0" y="205.0" text-anchor="middle" font-family="Arial, Helvetica, sans-serif" font-size="13" fill="#6d3b7e"><tspan x="525.0" dy="0">Online</tspan></text><path d="M 650 290 L 720 290" fill="none" stroke="#4b5563" stroke-width="2.6" marker-end="url(#arrow)"/><path d="M 1000 298 L 1025 298" fill="none" stroke="#4b5563" stroke-width="2.6" marker-end="url(#arrow)"/><path d="M 1215 360 L 1215 400 L 540 400 L 540 430" fill="none" stroke="#4b5563" stroke-width="2.6" marker-end="url(#arrow)"/><rect x="1158.0" y="373.0" width="44" height="24" rx="3" ry="3" fill="#efd9ff" stroke="none" stroke-width="0"/><text x="1180.0" y="385.0" text-anchor="middle" font-family="Arial, Helvetica, sans-serif" font-size="13" fill="#6d3b7e"><tspan x="1180.0" dy="0">Yes</tspan></text><path d="M 1188 290 L 1325 290" fill="none" stroke="#4b5563" stroke-width="2.6" marker-end="url(#arrow)"/><rect x="1226.0" y="348.0" width="44" height="24" rx="3" ry="3" fill="#efd9ff" stroke="none" stroke-width="0"/><text x="1248.0" y="360.0" text-anchor="middle" font-family="Arial, Helvetica, sans-serif" font-size="13" fill="#6d3b7e"><tspan x="1248.0" dy="0">No</tspan></text><path d="M 1555 296 L 1610 296" fill="none" stroke="#4b5563" stroke-width="2.6" marker-end="url(#arrow)"/><path d="M 330 290 L 420 290 L 420 466" fill="none" stroke="#4b5563" stroke-width="2.6" marker-end="url(#arrow)"/><path d="M 660 466 L 760 466" fill="none" stroke="#4b5563" stroke-width="2.6" marker-end="url(#arrow)"/><path d="M 1040 470 L 1080 470" fill="none" stroke="#4b5563" stroke-width="2.6" marker-end="url(#arrow)"/><path d="M 1120 545 L 1120 575 L 735 575 L 735 610" fill="none" stroke="#4b5563" stroke-width="2.6" marker-end="url(#arrow)"/><rect x="1088.0" y="553.0" width="44" height="24" rx="3" ry="3" fill="#efd9ff" stroke="none" stroke-width="0"/><text x="1110.0" y="565.0" text-anchor="middle" font-family="Arial, Helvetica, sans-serif" font-size="13" fill="#6d3b7e"><tspan x="1110.0" dy="0">Yes</tspan></text><path d="M 1240 545 L 1240 640 L 750 640 L 750 730" fill="none" stroke="#4b5563" stroke-width="2.6" marker-end="url(#arrow)"/><rect x="1226.0" y="583.0" width="44" height="24" rx="3" ry="3" fill="#efd9ff" stroke="none" stroke-width="0"/><text x="1248.0" y="595.0" text-anchor="middle" font-family="Arial, Helvetica, sans-serif" font-size="13" fill="#6d3b7e"><tspan x="1248.0" dy="0">No</tspan></text><path d="M 850 646 L 895 646" fill="none" stroke="#4b5563" stroke-width="2.6" marker-end="url(#arrow)"/><path d="M 1065 650 L 1260 650" fill="none" stroke="#4b5563" stroke-width="2.6" marker-end="url(#arrow)"/><rect x="1133.0" y="608.0" width="44" height="24" rx="3" ry="3" fill="#efd9ff" stroke="none" stroke-width="0"/><text x="1155.0" y="620.0" text-anchor="middle" font-family="Arial, Helvetica, sans-serif" font-size="13" fill="#6d3b7e"><tspan x="1155.0" dy="0">Yes</tspan></text><path d="M 1385 610 C 1385 570, 820 570, 820 610" fill="none" stroke="#4b5563" stroke-width="2.6" marker-end="url(#arrow)"/><path d="M 1035 710 L 1035 730" fill="none" stroke="#4b5563" stroke-width="2.6" marker-end="url(#arrow)"/><rect x="1078.0" y="693.0" width="44" height="24" rx="3" ry="3" fill="#efd9ff" stroke="none" stroke-width="0"/><text x="1100.0" y="705.0" text-anchor="middle" font-family="Arial, Helvetica, sans-serif" font-size="13" fill="#6d3b7e"><tspan x="1100.0" dy="0">No</tspan></text><path d="M 880 774 L 980 766" fill="none" stroke="#4b5563" stroke-width="2.6" marker-end="url(#arrow)"/><path d="M 1190 766 L 1270 766" fill="none" stroke="#4b5563" stroke-width="2.6" marker-end="url(#arrow)"/><path d="M 1530 774 L 1585 774" fill="none" stroke="#4b5563" stroke-width="2.6" marker-end="url(#arrow)"/><path d="M 1710 828 L 1715 840" fill="none" stroke="#4b5563" stroke-width="2.6" marker-end="url(#arrow)"/></svg>