<svg xmlns="http://www.w3.org/2000/svg" width="2700" height="1900" viewBox="0 0 2700 1900">
  <defs>
    <style><![CDATA[
      .title { font: 700 56px Arial, sans-serif; fill: #000; }
      .section { font: 700 36px Arial, sans-serif; fill: #000; }
      .label { font: 700 31px Arial, sans-serif; fill: #000; }
      .actor { font: 700 29px Arial, sans-serif; fill: #000; }
      .small { font: 400 23px Arial, sans-serif; fill: #000; }
      .assoc { stroke: #111; stroke-width: 3.2; fill: none; }
    ]]></style>
  </defs>
  <rect width="2700" height="1900" fill="#fff"/>
  <text x="1350" y="76" text-anchor="middle" class="title">FamilyFunds Use Case Diagram</text>
  <rect x="430" y="150" width="1785" height="1600" rx="30" fill="#f8fbff" stroke="#111" stroke-width="4" />
  <text x="1322" y="215" text-anchor="middle" class="section">FamilyFunds Platform Boundary</text>
  <g id="associations"><path class="assoc" d="M365 330 L536 330"/>
<path class="assoc" d="M365 330 L1056 330"/>
<path class="assoc" d="M365 330 L1576 330"/>
<path class="assoc" d="M365 720 L486 720"/>
<path class="assoc" d="M365 720 L906 720"/>
<path class="assoc" d="M365 720 L1326 720"/>
<path class="assoc" d="M365 720 L1746 720"/>
<path class="assoc" d="M365 1110 L486 1110"/>
<path class="assoc" d="M365 1110 L906 1110"/>
<path class="assoc" d="M365 1110 L1326 1110"/>
<path class="assoc" d="M365 1110 L1746 1110"/>
<path class="assoc" d="M365 1500 L536 1500"/>
<path class="assoc" d="M365 1500 L1056 1500"/>
<path class="assoc" d="M365 1500 L1576 1500"/>
<path class="assoc" d="M2310 655 C2225 655, 2170 720, 2195 720"/>
<path class="assoc" d="M2310 655 C2140 655, 2045 1500, 2028 1500"/>
<path class="assoc" d="M2310 1255 C2220 1255, 2205 720, 2195 720"/>
<path class="assoc" d="M2310 1255 C2220 1255, 2205 1110, 2195 1110"/>
<path class="assoc" d="M2310 1255 C2140 1255, 2045 1500, 2028 1500"/></g>
  <g id="actors-and-use-cases"><rect x="65" y="270" width="300" height="120" rx="20" fill="#fff3d8" stroke="#111" stroke-width="3" />
<text x="215" y="320" text-anchor="middle" class="actor"><tspan x="215" dy="0">Platform</tspan><tspan x="215" dy="34">Super Admin</tspan></text>
<ellipse cx="760" cy="330" rx="225" ry="92" fill="#e8f1ff" stroke="#111" stroke-width="3" />
<text x="760" y="320" text-anchor="middle" class="label"><tspan x="760" dy="0">Manage Families</tspan><tspan x="760" dy="34">and Users</tspan></text>
<ellipse cx="1280" cy="330" rx="225" ry="92" fill="#ecfdf3" stroke="#111" stroke-width="3" />
<text x="1280" y="320" text-anchor="middle" class="label"><tspan x="1280" dy="0">Manage Billing</tspan><tspan x="1280" dy="34">and Plans</tspan></text>
<ellipse cx="1800" cy="330" rx="225" ry="92" fill="#fff7ed" stroke="#111" stroke-width="3" />
<text x="1800" y="320" text-anchor="middle" class="label"><tspan x="1800" dy="0">Review Platform</tspan><tspan x="1800" dy="34">Reports</tspan></text>
<rect x="65" y="660" width="300" height="120" rx="20" fill="#fff3d8" stroke="#111" stroke-width="3" />
<text x="215" y="710" text-anchor="middle" class="actor"><tspan x="215" dy="0">Family</tspan><tspan x="215" dy="34">Admin</tspan></text>
<ellipse cx="710" cy="720" rx="225" ry="92" fill="#e8f1ff" stroke="#111" stroke-width="3" />
<text x="710" y="710" text-anchor="middle" class="label"><tspan x="710" dy="0">Manage Family</tspan><tspan x="710" dy="34">and Members</tspan></text>
<ellipse cx="1130" cy="720" rx="225" ry="92" fill="#ecfdf3" stroke="#111" stroke-width="3" />
<text x="1130" y="710" text-anchor="middle" class="label"><tspan x="1130" dy="0">Set Contribution</tspan><tspan x="1130" dy="34">Categories</tspan></text>
<ellipse cx="1550" cy="720" rx="225" ry="92" fill="#fff7ed" stroke="#111" stroke-width="3" />
<text x="1550" y="710" text-anchor="middle" class="label"><tspan x="1550" dy="0">View Reports</tspan><tspan x="1550" dy="34">and Balances</tspan></text>
<ellipse cx="1970" cy="720" rx="225" ry="92" fill="#e8f1ff" stroke="#111" stroke-width="3" />
<text x="1970" y="710" text-anchor="middle" class="label"><tspan x="1970" dy="0">Use AI Assistant</tspan><tspan x="1970" dy="34">for Queries</tspan></text>
<rect x="65" y="1050" width="300" height="120" rx="20" fill="#fff3d8" stroke="#111" stroke-width="3" />
<text x="215" y="1100" text-anchor="middle" class="actor"><tspan x="215" dy="0">Financial</tspan><tspan x="215" dy="34">Secretary</tspan></text>
<ellipse cx="710" cy="1110" rx="225" ry="92" fill="#e8f1ff" stroke="#111" stroke-width="3" />
<text x="710" y="1100" text-anchor="middle" class="label"><tspan x="710" dy="0">Track Contributions</tspan><tspan x="710" dy="34">and Payments</tspan></text>
<ellipse cx="1130" cy="1110" rx="225" ry="92" fill="#ecfdf3" stroke="#111" stroke-width="3" />
<text x="1130" y="1100" text-anchor="middle" class="label"><tspan x="1130" dy="0">Record Expenses</tspan><tspan x="1130" dy="34">and Adjustments</tspan></text>
<ellipse cx="1550" cy="1110" rx="225" ry="92" fill="#fff7ed" stroke="#111" stroke-width="3" />
<text x="1550" y="1100" text-anchor="middle" class="label"><tspan x="1550" dy="0">Send Email / WhatsApp</tspan><tspan x="1550" dy="34">Reminders</tspan></text>
<ellipse cx="1970" cy="1110" rx="225" ry="92" fill="#e8f1ff" stroke="#111" stroke-width="3" stroke-dasharray="12 9" />
<text x="1970" y="1100" text-anchor="middle" class="label"><tspan x="1970" dy="0">Generate Predictive</tspan><tspan x="1970" dy="34">Insights</tspan></text>
<rect x="65" y="1440" width="300" height="120" rx="20" fill="#fff3d8" stroke="#111" stroke-width="3" />
<text x="215" y="1490" text-anchor="middle" class="actor"><tspan x="215" dy="0">Member</tspan></text>
<ellipse cx="760" cy="1500" rx="225" ry="92" fill="#e8f1ff" stroke="#111" stroke-width="3" />
<text x="760" y="1490" text-anchor="middle" class="label"><tspan x="760" dy="0">Pay Contributions</tspan><tspan x="760" dy="34">Online</tspan></text>
<ellipse cx="1280" cy="1500" rx="225" ry="92" fill="#ecfdf3" stroke="#111" stroke-width="3" />
<text x="1280" y="1490" text-anchor="middle" class="label"><tspan x="1280" dy="0">View My Contribution</tspan><tspan x="1280" dy="34">Status</tspan></text>
<ellipse cx="1800" cy="1500" rx="225" ry="92" fill="#fff7ed" stroke="#111" stroke-width="3" />
<text x="1800" y="1490" text-anchor="middle" class="label"><tspan x="1800" dy="0">Use AI Assistant</tspan><tspan x="1800" dy="34">for Queries</tspan></text>
<rect x="2310" y="595" width="300" height="120" rx="20" fill="#fff3d8" stroke="#111" stroke-width="3" />
<text x="2460" y="645" text-anchor="middle" class="actor"><tspan x="2460" dy="0">Paystack</tspan></text>
<rect x="2310" y="1195" width="300" height="120" rx="20" fill="#fff3d8" stroke="#111" stroke-width="3" />
<text x="2460" y="1245" text-anchor="middle" class="actor"><tspan x="2460" dy="0">AI</tspan><tspan x="2460" dy="34">Provider</tspan></text></g>
  <rect x="540" y="1655" width="1590" height="58" rx="14" fill="#ffffff" stroke="#111" stroke-width="2" />
  <text x="1335" y="1692" text-anchor="middle" class="small">Repeated use cases indicate roles that share the same permitted system action.</text>
</svg>